solid Exported from Blender-3.3.1
facet normal 0.000000 0.000000 1.000000
outer loop
vertex 0.000000 -1.861700 0.019266
vertex 0.001593 -1.861700 0.019266
vertex 0.003271 -1.752079 0.019266
endloop
endfacet
facet normal 0.000000 0.000000 1.000000
outer loop
vertex 0.000000 -1.861700 0.019266
vertex 0.003271 -1.752079 0.019266
vertex 0.001732 -1.752079 0.019266
endloop
endfacet
facet normal 0.000000 0.000000 1.000000
outer loop
vertex 0.050508 1.334300 0.019266
vertex 0.003271 -1.752079 0.019266
vertex 0.003905 -1.752079 0.019266
endloop
endfacet
facet normal 0.000000 0.000000 1.000000
outer loop
vertex 0.002250 -1.861700 0.019266
vertex 0.025457 -1.752079 0.019266
vertex 0.003905 -1.752079 0.019266
endloop
endfacet
facet normal -0.995732 0.015736 0.090944
outer loop
vertex 0.000000 -1.861700 0.019266
vertex 0.001732 -1.752079 0.019266
vertex 0.000000 -1.681881 -0.011848
endloop
endfacet
facet normal 0.036585 0.999325 -0.003342
outer loop
vertex 0.000000 1.334300 -0.533735
vertex 0.050508 1.334300 0.019266
vertex 0.053844 1.334165 0.015542
endloop
endfacet
facet normal 0.000000 0.999998 0.001885
outer loop
vertex 0.050508 1.334300 0.019266
vertex 0.678861 1.334300 0.019266
vertex 0.680824 1.334309 0.014667
endloop
endfacet
facet normal -0.000279 0.999338 -0.036381
outer loop
vertex 0.050508 1.334300 0.019266
vertex 0.680824 1.334309 0.014667
vertex 0.053844 1.334165 0.015542
endloop
endfacet
facet normal -0.434041 0.092042 0.896179
outer loop
vertex 0.005009 -1.861837 0.015616
vertex 0.029975 -1.743767 0.015581
vertex 0.027912 -1.740833 0.014281
endloop
endfacet
facet normal -0.434031 0.092041 0.896184
outer loop
vertex 0.005009 -1.861837 0.015616
vertex 0.027912 -1.740833 0.014281
vertex 0.002250 -1.861700 0.014266
endloop
endfacet
facet normal -0.001395 -0.000002 -0.999999
outer loop
vertex 0.005009 -1.861837 0.015616
vertex 0.006812 -1.743840 0.015613
vertex 0.029975 -1.743767 0.015581
endloop
endfacet
facet normal 0.721959 0.000599 -0.691936
outer loop
vertex 0.680824 1.334309 0.014667
vertex 0.832165 1.334316 0.172575
vertex 0.681568 -0.014642 0.014276
endloop
endfacet
facet normal -0.000771 0.000289 -1.000000
outer loop
vertex 0.680824 1.334309 0.014667
vertex 0.681568 -0.014642 0.014276
vertex 0.046715 -1.740800 0.014266
endloop
endfacet
facet normal -0.000771 0.000289 -1.000000
outer loop
vertex 0.680824 1.334309 0.014667
vertex 0.046715 -1.740800 0.014266
vertex 0.027912 -1.740833 0.014281
endloop
endfacet
facet normal -0.001417 0.999998 0.001304
outer loop
vertex 0.678861 1.334300 0.019266
vertex 0.832165 1.334316 0.172575
vertex 0.680824 1.334309 0.014667
endloop
endfacet
facet normal 0.046829 0.998884 0.006145
outer loop
vertex 0.001593 -1.861700 0.019266
vertex 0.005009 -1.861837 0.015616
vertex 0.002250 -1.861700 0.014266
endloop
endfacet
facet normal 0.000000 -1.000000 0.000000
outer loop
vertex 0.002250 -1.861700 0.019266
vertex 0.001593 -1.861700 0.019266
vertex 0.002250 -1.861700 0.014266
endloop
endfacet
facet normal 0.936777 -0.344529 0.061223
outer loop
vertex 0.681242 -0.014643 0.019266
vertex 0.046424 -1.741532 0.014591
vertex 0.046715 -1.740800 0.014266
endloop
endfacet
facet normal 0.936782 -0.344534 0.061125
outer loop
vertex 0.681242 -0.014643 0.019266
vertex 0.046715 -1.740800 0.014266
vertex 0.681568 -0.014642 0.014276
endloop
endfacet
facet normal 0.938591 -0.345033 -0.000007
outer loop
vertex 0.681242 -0.014643 0.019266
vertex 0.042547 -1.752079 0.019266
vertex 0.046424 -1.741532 0.014591
endloop
endfacet
facet normal 0.000000 0.000000 1.000000
outer loop
vertex 0.002250 -1.861700 0.019266
vertex 0.042547 -1.752079 0.019266
vertex 0.025457 -1.752079 0.019266
endloop
endfacet
facet normal 0.991164 -0.115761 0.064759
outer loop
vertex 0.828549 1.334300 0.176028
vertex 0.681242 -0.014643 0.019266
vertex 0.681568 -0.014642 0.014276
endloop
endfacet
facet normal -0.723236 -0.001277 0.690599
outer loop
vertex 0.678861 1.334300 0.019266
vertex 0.681242 -0.014643 0.019266
vertex 0.828549 1.334300 0.176028
endloop
endfacet
facet normal -0.002311 0.999995 0.002214
outer loop
vertex 0.678861 1.334300 0.019266
vertex 0.828549 1.334300 0.176028
vertex 0.832165 1.334316 0.172575
endloop
endfacet
facet normal 0.682058 -0.159885 0.713606
outer loop
vertex 0.828549 1.334300 0.176028
vertex 0.681568 -0.014642 0.014276
vertex 0.832165 1.334316 0.172575
endloop
endfacet
facet normal 0.230574 -0.003546 -0.973048
outer loop
vertex 0.000000 -1.863768 0.014436
vertex 0.002062 -1.741279 0.014479
vertex 0.006812 -1.743840 0.015613
endloop
endfacet
facet normal 0.230575 -0.003546 -0.973048
outer loop
vertex 0.000000 -1.863768 0.014436
vertex 0.006812 -1.743840 0.015613
vertex 0.005009 -1.861837 0.015616
endloop
endfacet
facet normal 0.281439 -0.912171 0.297886
outer loop
vertex 0.001593 -1.861700 0.019266
vertex 0.000000 -1.863768 0.014436
vertex 0.005009 -1.861837 0.015616
endloop
endfacet
facet normal 0.000000 -0.919224 0.393735
outer loop
vertex 0.001593 -1.861700 0.019266
vertex 0.000000 -1.861700 0.019266
vertex 0.000000 -1.863768 0.014436
endloop
endfacet
facet normal -0.253067 -0.889310 0.380901
outer loop
vertex 0.000000 -1.861700 0.019266
vertex -0.005009 -1.861837 0.015616
vertex 0.000000 -1.863768 0.014436
endloop
endfacet
facet normal 0.995178 -0.016723 -0.096646
outer loop
vertex 0.000000 -1.863768 0.014436
vertex 0.000000 -1.662683 -0.020357
vertex 0.000503 -1.681865 -0.011856
endloop
endfacet
facet normal 0.995178 -0.016723 -0.096646
outer loop
vertex 0.000000 -1.863768 0.014436
vertex 0.000503 -1.681865 -0.011856
vertex 0.002062 -1.741279 0.014479
endloop
endfacet
facet normal -0.995178 -0.016723 -0.096646
outer loop
vertex 0.000000 -1.863768 0.014436
vertex -0.002062 -1.741279 0.014479
vertex -0.000503 -1.681864 -0.011856
endloop
endfacet
facet normal -0.995178 -0.016722 -0.096646
outer loop
vertex 0.000000 -1.863768 0.014436
vertex -0.000503 -1.681864 -0.011856
vertex 0.000000 -1.662683 -0.020357
endloop
endfacet
facet normal -0.230574 -0.003546 -0.973048
outer loop
vertex 0.000000 -1.863768 0.014436
vertex -0.005009 -1.861837 0.015616
vertex -0.006812 -1.743839 0.015613
endloop
endfacet
facet normal -0.230574 -0.003546 -0.973048
outer loop
vertex 0.000000 -1.863768 0.014436
vertex -0.006812 -1.743839 0.015613
vertex -0.002062 -1.741279 0.014479
endloop
endfacet
facet normal 0.434032 0.092041 0.896183
outer loop
vertex -0.005009 -1.861837 0.015616
vertex -0.002250 -1.861700 0.014266
vertex -0.027912 -1.740833 0.014281
endloop
endfacet
facet normal 0.434036 0.092042 0.896181
outer loop
vertex -0.005009 -1.861837 0.015616
vertex -0.027912 -1.740833 0.014281
vertex -0.029975 -1.743766 0.015581
endloop
endfacet
facet normal 0.001396 -0.000002 -0.999999
outer loop
vertex -0.680824 1.334309 0.014667
vertex -0.053844 1.334165 0.015542
vertex -0.006812 -1.743839 0.015613
endloop
endfacet
facet normal 0.001396 -0.000002 -0.999999
outer loop
vertex -0.680824 1.334309 0.014667
vertex -0.006812 -1.743839 0.015613
vertex -0.029975 -1.743766 0.015581
endloop
endfacet
facet normal -0.049834 0.998757 0.000000
outer loop
vertex -0.002250 -1.861700 0.019266
vertex -0.002250 -1.861700 0.014266
vertex -0.005009 -1.861837 0.015616
endloop
endfacet
facet normal 0.000000 -0.999292 0.037623
outer loop
vertex 0.000000 -1.861700 0.019266
vertex -0.001593 -1.861700 0.019266
vertex -0.005009 -1.861837 0.015616
endloop
endfacet
facet normal 0.000000 -0.999291 0.037646
outer loop
vertex -0.001593 -1.861700 0.019266
vertex -0.002250 -1.861700 0.019266
vertex -0.005009 -1.861837 0.015616
endloop
endfacet
facet normal 0.000000 0.000000 1.000000
outer loop
vertex -0.002250 -1.861700 0.019266
vertex -0.001593 -1.861700 0.019266
vertex -0.003271 -1.752079 0.019266
endloop
endfacet
facet normal 0.000000 0.000000 1.000000
outer loop
vertex -0.002250 -1.861700 0.019266
vertex -0.003271 -1.752079 0.019266
vertex -0.003905 -1.752079 0.019266
endloop
endfacet
facet normal 0.000000 0.000000 1.000000
outer loop
vertex -0.050508 1.334300 0.019266
vertex -0.681242 -0.014643 0.019266
vertex -0.042547 -1.752079 0.019266
endloop
endfacet
facet normal 0.000000 0.000000 1.000000
outer loop
vertex -0.050508 1.334300 0.019266
vertex -0.042547 -1.752079 0.019266
vertex -0.003905 -1.752079 0.019266
endloop
endfacet
facet normal -0.938537 -0.345179 0.000010
outer loop
vertex -0.002250 -1.861700 0.019266
vertex -0.042814 -1.751407 0.018968
vertex -0.046715 -1.740800 0.014266
endloop
endfacet
facet normal -0.938537 -0.345179 0.000000
outer loop
vertex -0.002250 -1.861700 0.019266
vertex -0.046715 -1.740800 0.014266
vertex -0.002250 -1.861700 0.014266
endloop
endfacet
facet normal -0.936852 -0.344389 0.060859
outer loop
vertex -0.002250 -1.861700 0.019266
vertex -0.042547 -1.752079 0.019266
vertex -0.042814 -1.751407 0.018968
endloop
endfacet
facet normal 0.000771 0.000289 -1.000000
outer loop
vertex -0.002250 -1.861700 0.014266
vertex -0.046715 -1.740800 0.014266
vertex -0.027912 -1.740833 0.014281
endloop
endfacet
facet normal -0.721959 0.000599 -0.691936
outer loop
vertex -0.680824 1.334309 0.014667
vertex -0.681568 -0.014642 0.014276
vertex -0.832165 1.334316 0.172575
endloop
endfacet
facet normal -0.990875 -0.118216 0.064737
outer loop
vertex -0.681242 -0.014643 0.019266
vertex -0.832165 1.334316 0.172575
vertex -0.681568 -0.014642 0.014276
endloop
endfacet
facet normal 0.002329 0.999995 0.002180
outer loop
vertex -0.828549 1.334300 0.176028
vertex -0.680824 1.334309 0.014667
vertex -0.832165 1.334316 0.172575
endloop
endfacet
facet normal -0.682317 -0.157474 0.713894
outer loop
vertex -0.681242 -0.014643 0.019266
vertex -0.828549 1.334300 0.176028
vertex -0.832165 1.334316 0.172575
endloop
endfacet
facet normal 0.723236 -0.001277 0.690599
outer loop
vertex -0.678861 1.334300 0.019266
vertex -0.828549 1.334300 0.176028
vertex -0.681242 -0.014643 0.019266
endloop
endfacet
facet normal 0.001388 0.999998 0.001324
outer loop
vertex -0.828549 1.334300 0.176028
vertex -0.678861 1.334300 0.019266
vertex -0.680824 1.334309 0.014667
endloop
endfacet
facet normal 0.000000 0.999347 -0.036120
outer loop
vertex -0.678861 1.334300 0.019266
vertex -0.050508 1.334300 0.019266
vertex -0.053844 1.334165 0.015542
endloop
endfacet
facet normal 0.000000 0.000000 1.000000
outer loop
vertex -0.050508 1.334300 0.019266
vertex -0.678861 1.334300 0.019266
vertex -0.681242 -0.014643 0.019266
endloop
endfacet
facet normal 0.000226 0.999998 0.001779
outer loop
vertex -0.678861 1.334300 0.019266
vertex -0.053844 1.334165 0.015542
vertex -0.680824 1.334309 0.014667
endloop
endfacet
facet normal 0.000000 0.000000 1.000000
outer loop
vertex 0.000000 -1.861700 0.019266
vertex -0.001732 -1.752079 0.019266
vertex -0.003271 -1.752079 0.019266
endloop
endfacet
facet normal 0.000000 0.000000 1.000000
outer loop
vertex 0.000000 -1.861700 0.019266
vertex -0.003271 -1.752079 0.019266
vertex -0.001593 -1.861700 0.019266
endloop
endfacet
facet normal 0.995732 0.015736 0.090944
outer loop
vertex 0.000000 -1.861700 0.019266
vertex 0.000000 -1.681881 -0.011848
vertex -0.001732 -1.752079 0.019266
endloop
endfacet
facet normal -0.974133 0.207719 -0.088981
outer loop
vertex -0.050508 1.334300 0.019266
vertex 0.000000 1.334300 -0.533735
vertex -0.000469 1.332250 -0.533380
endloop
endfacet
facet normal -0.031205 0.999492 -0.006517
outer loop
vertex -0.050508 1.334300 0.019266
vertex -0.000469 1.332250 -0.533380
vertex -0.000504 1.332249 -0.533380
endloop
endfacet
facet normal -0.032862 0.999438 -0.006676
outer loop
vertex -0.050508 1.334300 0.019266
vertex -0.000504 1.332249 -0.533380
vertex -0.053844 1.334165 0.015542
endloop
endfacet
facet normal 0.970408 0.221969 -0.095067
outer loop
vertex 0.000000 1.334300 -0.533735
vertex 0.053844 1.334165 0.015542
vertex 0.000504 1.332249 -0.533380
endloop
endfacet
facet normal 0.936780 -0.344530 0.061180
outer loop
vertex 0.046715 -1.740800 0.014266
vertex 0.046424 -1.741532 0.014591
vertex 0.002250 -1.861700 0.014266
endloop
endfacet
facet normal -0.000771 0.000290 -1.000000
outer loop
vertex 0.027912 -1.740833 0.014281
vertex 0.046715 -1.740800 0.014266
vertex 0.002250 -1.861700 0.014266
endloop
endfacet
facet normal 0.000000 0.000000 1.000000
outer loop
vertex 0.025457 -1.752079 0.019266
vertex 0.042547 -1.752079 0.019266
vertex 0.681242 -0.014643 0.019266
endloop
endfacet
facet normal -0.000000 0.000000 1.000000
outer loop
vertex 0.025457 -1.752079 0.019266
vertex 0.681242 -0.014643 0.019266
vertex 0.678861 1.334300 0.019266
endloop
endfacet
facet normal -0.995178 -0.016723 -0.096646
outer loop
vertex 0.000000 -1.662683 -0.020357
vertex -0.000503 -1.681864 -0.011856
vertex -0.000504 1.332249 -0.533380
endloop
endfacet
facet normal -0.995178 -0.016723 -0.096646
outer loop
vertex 0.000000 -1.662683 -0.020357
vertex -0.000504 1.332249 -0.533380
vertex 0.000000 1.332231 -0.538564
endloop
endfacet
facet normal 0.434030 0.092040 0.896185
outer loop
vertex -0.029975 -1.743766 0.015581
vertex -0.027912 -1.740833 0.014281
vertex -0.680824 1.334309 0.014667
endloop
endfacet
facet normal 0.000000 0.000000 1.000000
outer loop
vertex -0.003905 -1.752079 0.019266
vertex -0.042547 -1.752079 0.019266
vertex -0.002250 -1.861700 0.019266
endloop
endfacet
facet normal -0.936840 -0.344387 0.061058
outer loop
vertex -0.042814 -1.751407 0.018968
vertex -0.042547 -1.752079 0.019266
vertex -0.681242 -0.014643 0.019266
endloop
endfacet
facet normal -0.936835 -0.344388 0.061127
outer loop
vertex -0.042814 -1.751407 0.018968
vertex -0.681242 -0.014643 0.019266
vertex -0.681568 -0.014642 0.014276
endloop
endfacet
facet normal 0.000000 0.000000 1.000000
outer loop
vertex 0.003905 -1.752079 0.019266
vertex 0.003271 -1.752079 0.019266
vertex 0.001593 -1.861700 0.019266
endloop
endfacet
facet normal 0.000000 0.000000 1.000000
outer loop
vertex 0.003905 -1.752079 0.019266
vertex 0.001593 -1.861700 0.019266
vertex 0.002250 -1.861700 0.019266
endloop
endfacet
facet normal -0.995732 0.015736 0.090944
outer loop
vertex 0.000000 -1.681881 -0.011848
vertex 0.001732 -1.752079 0.019266
vertex 0.050508 1.334300 0.019266
endloop
endfacet
facet normal -0.995732 0.015736 0.090944
outer loop
vertex 0.000000 -1.681881 -0.011848
vertex 0.050508 1.334300 0.019266
vertex 0.000000 1.334300 -0.533735
endloop
endfacet
facet normal -0.434035 0.092041 0.896182
outer loop
vertex 0.027912 -1.740833 0.014281
vertex 0.029975 -1.743767 0.015581
vertex 0.680824 1.334309 0.014667
endloop
endfacet
facet normal 0.995732 0.015736 0.090944
outer loop
vertex -0.001732 -1.752079 0.019266
vertex 0.000000 -1.681881 -0.011848
vertex 0.000000 1.334300 -0.533735
endloop
endfacet
facet normal 0.995732 0.015736 0.090944
outer loop
vertex -0.001732 -1.752079 0.019266
vertex 0.000000 1.334300 -0.533735
vertex -0.050508 1.334300 0.019266
endloop
endfacet
facet normal 0.938591 -0.345033 -0.000027
outer loop
vertex 0.046424 -1.741532 0.014591
vertex 0.042547 -1.752079 0.019266
vertex 0.002250 -1.861700 0.019266
endloop
endfacet
facet normal 0.938591 -0.345033 0.000000
outer loop
vertex 0.046424 -1.741532 0.014591
vertex 0.002250 -1.861700 0.019266
vertex 0.002250 -1.861700 0.014266
endloop
endfacet
facet normal 0.230574 -0.003546 -0.973048
outer loop
vertex 0.006812 -1.743840 0.015613
vertex 0.002062 -1.741279 0.014479
vertex 0.053844 1.334165 0.015542
endloop
endfacet
facet normal 0.995178 -0.016722 -0.096646
outer loop
vertex 0.002062 -1.741279 0.014479
vertex 0.000503 -1.681865 -0.011856
vertex 0.000504 1.332249 -0.533380
endloop
endfacet
facet normal 0.995178 -0.016723 -0.096646
outer loop
vertex 0.002062 -1.741279 0.014479
vertex 0.000504 1.332249 -0.533380
vertex 0.053844 1.334165 0.015542
endloop
endfacet
facet normal -0.230574 -0.003546 -0.973048
outer loop
vertex -0.002062 -1.741279 0.014479
vertex -0.006812 -1.743839 0.015613
vertex -0.053844 1.334165 0.015542
endloop
endfacet
facet normal 0.001396 -0.000002 -0.999999
outer loop
vertex -0.029975 -1.743766 0.015581
vertex -0.006812 -1.743839 0.015613
vertex -0.005009 -1.861837 0.015616
endloop
endfacet
facet normal 0.000000 0.000000 1.000000
outer loop
vertex -0.003905 -1.752079 0.019266
vertex -0.003271 -1.752079 0.019266
vertex -0.050508 1.334300 0.019266
endloop
endfacet
facet normal -0.938537 -0.345179 0.000014
outer loop
vertex -0.046715 -1.740800 0.014266
vertex -0.042814 -1.751407 0.018968
vertex -0.681568 -0.014642 0.014276
endloop
endfacet
facet normal 0.000000 0.000000 1.000000
outer loop
vertex 0.001732 -1.752079 0.019266
vertex 0.003271 -1.752079 0.019266
vertex 0.050508 1.334300 0.019266
endloop
endfacet
facet normal 0.000000 0.000000 1.000000
outer loop
vertex 0.003905 -1.752079 0.019266
vertex 0.025457 -1.752079 0.019266
vertex 0.678861 1.334300 0.019266
endloop
endfacet
facet normal 0.000000 0.000000 1.000000
outer loop
vertex 0.003905 -1.752079 0.019266
vertex 0.678861 1.334300 0.019266
vertex 0.050508 1.334300 0.019266
endloop
endfacet
facet normal 0.000771 0.000289 -1.000000
outer loop
vertex -0.027912 -1.740833 0.014281
vertex -0.046715 -1.740800 0.014266
vertex -0.681568 -0.014642 0.014276
endloop
endfacet
facet normal 0.000771 0.000289 -1.000000
outer loop
vertex -0.027912 -1.740833 0.014281
vertex -0.681568 -0.014642 0.014276
vertex -0.680824 1.334309 0.014667
endloop
endfacet
facet normal -0.001396 -0.000002 -0.999999
outer loop
vertex 0.029975 -1.743767 0.015581
vertex 0.006812 -1.743840 0.015613
vertex 0.053844 1.334165 0.015542
endloop
endfacet
facet normal -0.001396 -0.000002 -0.999999
outer loop
vertex 0.029975 -1.743767 0.015581
vertex 0.053844 1.334165 0.015542
vertex 0.680824 1.334309 0.014667
endloop
endfacet
facet normal 0.000000 0.000000 1.000000
outer loop
vertex -0.003271 -1.752079 0.019266
vertex -0.001732 -1.752079 0.019266
vertex -0.050508 1.334300 0.019266
endloop
endfacet
facet normal 0.995178 -0.016723 -0.096646
outer loop
vertex 0.000504 1.332249 -0.533380
vertex 0.000503 -1.681865 -0.011856
vertex 0.000000 -1.662683 -0.020357
endloop
endfacet
facet normal 0.995178 -0.016723 -0.096647
outer loop
vertex 0.000504 1.332249 -0.533380
vertex 0.000000 -1.662683 -0.020357
vertex 0.000000 1.332231 -0.538564
endloop
endfacet
facet normal -0.995178 -0.016722 -0.096645
outer loop
vertex -0.000504 1.332249 -0.533380
vertex -0.000503 -1.681864 -0.011856
vertex -0.002062 -1.741279 0.014479
endloop
endfacet
facet normal -0.995178 -0.016723 -0.096646
outer loop
vertex -0.000504 1.332249 -0.533380
vertex -0.002062 -1.741279 0.014479
vertex -0.053844 1.334165 0.015542
endloop
endfacet
facet normal -0.974133 0.207721 -0.088977
outer loop
vertex -0.000469 1.332250 -0.533380
vertex 0.000000 1.334300 -0.533735
vertex 0.000000 1.332231 -0.538564
endloop
endfacet
facet normal -0.031213 0.999496 -0.005877
outer loop
vertex -0.000504 1.332249 -0.533380
vertex -0.000469 1.332250 -0.533380
vertex 0.000000 1.332231 -0.538564
endloop
endfacet
facet normal 0.970406 0.221972 -0.095080
outer loop
vertex 0.000504 1.332249 -0.533380
vertex 0.000000 1.332231 -0.538564
vertex 0.000000 1.334300 -0.533735
endloop
endfacet
endsolid Exported from Blender-3.3.1
